<?xml version="1.0" encoding="utf-8"?>
<!-- Generator: Adobe Illustrator 15.0.0, SVG Export Plug-In . SVG Version: 6.00 Build 0)  -->
<!DOCTYPE svg PUBLIC "-//W3C//DTD SVG 1.1//EN" "http://www.w3.org/Graphics/SVG/1.1/DTD/svg11.dtd">
<svg version="1.1" id="Capa_1" xmlns="http://www.w3.org/2000/svg" xmlns:xlink="http://www.w3.org/1999/xlink" x="0px" y="0px"
	 width="172.491px" height="100px" viewBox="0 0 172.491 100" enable-background="new 0 0 172.491 100" xml:space="preserve">
<g>
	<rect fill="none" width="172.491" height="100"/>
	<g>
		<g>
			<path fill="#FFFFFF" d="M27.686,59.866c-0.105,1.637-0.23,3.193-0.373,4.668s-0.248,2.764-0.318,3.865
				c-0.036,0.427-0.125,0.713-0.266,0.854c-0.146,0.143-0.447,0.213-0.909,0.213H23.9c-1.104,0-2-0.114-2.693-0.346
				s-1.244-0.561-1.653-0.986s-0.694-0.951-0.854-1.574c-0.159-0.621-0.24-1.342-0.24-2.158c0-0.534,0.026-1.289,0.081-2.268
				c0.053-0.978,0.148-2.329,0.292-4.053c0.143-1.725,0.312-3.912,0.508-6.561c0.194-2.648,0.435-5.929,0.72-9.84
				c0.035-0.782,0.124-1.245,0.266-1.386c0.107-0.108,0.391-0.161,0.855-0.161h2.078c1.066,0,1.938,0.125,2.613,0.373
				c0.676,0.249,1.228,0.569,1.652,0.96c0.428,0.392,0.729,0.854,0.908,1.387c0.178,0.533,0.283,1.084,0.318,1.653
				c1.031-1.92,2.206-3.218,3.521-3.893c1.315-0.675,2.862-1.014,4.641-1.014c0.96,0,1.884,0.09,2.772,0.268
				c0.89,0.178,1.689,0.48,2.402,0.906c0.709,0.427,1.313,0.987,1.813,1.681c0.497,0.692,0.852,1.574,1.066,2.64
				c1.101-2.062,2.312-3.494,3.625-4.293c1.316-0.8,2.969-1.201,4.962-1.201c1.101,0,2.159,0.117,3.172,0.347
				c1.014,0.232,1.894,0.633,2.641,1.2c0.747,0.57,1.342,1.343,1.787,2.32c0.444,0.979,0.666,2.195,0.666,3.654
				c0,1.103-0.054,2.453-0.159,4.054c-0.106,1.599-0.231,3.333-0.374,5.199c-0.144,1.867-0.302,3.788-0.479,5.761
				c-0.18,1.973-0.32,3.866-0.427,5.68c-0.036,0.393-0.071,0.693-0.107,0.906c-0.036,0.215-0.099,0.374-0.185,0.48
				c-0.09,0.107-0.224,0.178-0.402,0.213c-0.176,0.037-0.426,0.053-0.746,0.053h-1.707c-1.139,0-2.063-0.105-2.772-0.319
				c-0.712-0.212-1.263-0.515-1.653-0.906s-0.668-0.88-0.828-1.467c-0.159-0.587-0.239-1.253-0.239-2c0-0.462,0.026-1.12,0.08-1.974
				c0.054-0.852,0.125-1.777,0.214-2.773c0.089-0.994,0.177-2.026,0.266-3.092c0.09-1.068,0.18-2.055,0.269-2.961
				c0.087-0.906,0.161-1.697,0.212-2.374c0.054-0.674,0.08-1.119,0.08-1.333c0-0.924-0.186-1.741-0.561-2.453
				c-0.372-0.711-1.094-1.066-2.16-1.066c-0.923,0-1.723,0.302-2.399,0.906c-0.675,0.605-1.245,1.44-1.706,2.507
				s-0.836,2.329-1.12,3.786c-0.286,1.459-0.479,3.041-0.587,4.747c-0.071,1.103-0.16,2.366-0.266,3.786
				c-0.107,1.424-0.232,3.201-0.375,5.334c-0.035,0.393-0.071,0.693-0.105,0.906c-0.036,0.215-0.098,0.374-0.188,0.48
				c-0.089,0.107-0.223,0.178-0.398,0.213c-0.18,0.037-0.427,0.053-0.747,0.053h-1.706c-1.141,0-2.063-0.105-2.775-0.319
				c-0.709-0.212-1.261-0.515-1.652-0.906c-0.393-0.392-0.666-0.88-0.827-1.467c-0.159-0.587-0.239-1.253-0.239-2
				c0-0.711,0.061-1.751,0.186-3.12c0.125-1.367,0.25-2.791,0.375-4.266c0.124-1.477,0.246-2.881,0.373-4.213
				c0.123-1.334,0.186-2.302,0.186-2.908c0-0.924-0.186-1.741-0.559-2.453c-0.375-0.711-1.094-1.066-2.16-1.066
				c-0.961,0-1.778,0.355-2.453,1.066c-0.677,0.712-1.237,1.662-1.682,2.853c-0.443,1.192-0.799,2.588-1.065,4.188
				C27.979,56.453,27.794,58.125,27.686,59.866z"/>
			<path fill="#FFFFFF" d="M78.513,70c-2.453,0-4.487-0.347-6.106-1.04c-1.618-0.693-2.908-1.645-3.865-2.854
				c-0.961-1.208-1.637-2.621-2.028-4.239c-0.391-1.618-0.586-3.352-0.586-5.2c0-2.133,0.258-4.222,0.773-6.266
				c0.515-2.044,1.394-3.867,2.64-5.467c1.243-1.601,2.889-2.889,4.933-3.866c2.045-0.979,4.597-1.468,7.654-1.468
				c4.479,0,7.688,1.094,9.625,3.281c1.938,2.188,2.906,5.253,2.906,9.201c0,1.102-0.078,2.32-0.239,3.652
				c-0.159,1.334-0.462,2.658-0.906,3.975c-0.443,1.314-1.049,2.595-1.814,3.839c-0.764,1.245-1.732,2.347-2.906,3.308
				c-1.172,0.959-2.587,1.724-4.238,2.292C82.7,69.716,80.752,70,78.513,70z M81.02,46.693c-1.352,0-2.428,0.347-3.227,1.04
				c-0.799,0.694-1.405,1.53-1.814,2.507c-0.409,0.979-0.675,2.009-0.8,3.093c-0.125,1.086-0.185,2-0.185,2.748
				c0,2.346,0.372,4.07,1.117,5.174c0.748,1.102,1.815,1.652,3.201,1.652c1.244,0,2.268-0.392,3.067-1.174
				c0.799-0.782,1.422-1.723,1.866-2.826c0.443-1.102,0.748-2.258,0.907-3.467s0.239-2.222,0.239-3.039
				c0-1.778-0.33-3.175-0.986-4.188C83.748,47.201,82.619,46.693,81.02,46.693z"/>
			<path fill="#FFFFFF" d="M96.857,62.907c0-3.199,1.441-5.707,4.321-7.52c2.881-1.814,7.128-2.791,12.747-2.934
				c0.034-0.392,0.061-0.721,0.079-0.987c0.018-0.266,0.026-0.594,0.026-0.986c0-1.138-0.212-2.045-0.639-2.721
				s-1.316-1.013-2.667-1.013c-0.747,0-1.353,0.106-1.814,0.319c-0.461,0.213-0.835,0.507-1.12,0.881
				c-0.284,0.373-0.516,0.826-0.692,1.359c-0.179,0.533-0.339,1.12-0.479,1.761c-0.072,0.32-0.231,0.524-0.48,0.613
				c-0.25,0.09-0.641,0.133-1.173,0.133c-3.628,0-5.44-1.368-5.44-4.106c0-1.102,0.258-2.152,0.773-3.147
				c0.516-0.996,1.279-1.858,2.293-2.586c1.015-0.729,2.285-1.308,3.813-1.734c1.53-0.427,3.309-0.641,5.335-0.641
				c3.946,0,6.808,0.82,8.587,2.454c1.777,1.636,2.665,3.946,2.665,6.933c0,0.393-0.044,1.094-0.134,2.107
				c-0.087,1.013-0.194,2.081-0.319,3.2s-0.231,2.178-0.319,3.173c-0.089,0.997-0.134,1.689-0.134,2.08
				c0,0.889,0.159,1.521,0.479,1.894s0.686,0.633,1.094,0.773c0.409,0.143,0.773,0.25,1.094,0.32c0.32,0.072,0.48,0.248,0.48,0.533
				c0,0.781-0.107,1.582-0.321,2.399c-0.214,0.819-0.558,1.565-1.039,2.241c-0.479,0.675-1.14,1.227-1.972,1.652
				c-0.838,0.426-1.859,0.64-3.067,0.64c-1.708,0-2.987-0.409-3.839-1.227c-0.855-0.817-1.425-1.955-1.708-3.413
				c-0.854,1.246-1.964,2.33-3.335,3.254c-1.368,0.923-3.154,1.386-5.359,1.386c-1.066,0-2.071-0.125-3.014-0.372
				c-0.941-0.25-1.759-0.658-2.453-1.229c-0.693-0.566-1.245-1.306-1.652-2.213C97.063,65.279,96.857,64.187,96.857,62.907z
				 M113.447,56.826c-0.927,0-1.833,0.072-2.722,0.214c-0.888,0.143-1.681,0.365-2.372,0.668c-0.695,0.301-1.255,0.701-1.682,1.199
				c-0.428,0.498-0.641,1.104-0.641,1.813c0,0.818,0.26,1.387,0.775,1.707s1.073,0.48,1.68,0.48c0.567,0,1.137-0.125,1.706-0.373
				c0.567-0.248,1.075-0.631,1.521-1.146c0.443-0.516,0.825-1.148,1.146-1.895C113.179,58.747,113.373,57.858,113.447,56.826z"/>
			<path fill="#FFFFFF" d="M153.817,65.146c0,0.179-0.089,0.534-0.266,1.067c-0.179,0.533-0.464,1.084-0.854,1.653
				c-0.391,0.568-0.88,1.067-1.466,1.493S149.942,70,149.125,70c-0.959,0-1.912-0.319-2.854-0.96s-1.875-1.512-2.8-2.613
				c-0.926-1.102-1.857-2.408-2.799-3.92c-0.943-1.51-1.894-3.155-2.854-4.934c-0.142,1.885-0.284,3.734-0.427,5.547
				c-0.143,1.814-0.284,3.573-0.426,5.279c-0.036,0.427-0.125,0.713-0.268,0.854c-0.141,0.143-0.445,0.213-0.906,0.213h-1.919
				c-1.104,0-2.011-0.114-2.722-0.346s-1.262-0.561-1.652-0.986c-0.392-0.426-0.668-0.969-0.826-1.627
				c-0.16-0.658-0.24-1.413-0.24-2.268c0-0.426,0.018-0.869,0.053-1.332c0.036-0.462,0.088-1.121,0.161-1.973
				c0.07-0.854,0.167-1.975,0.292-3.361s0.275-3.217,0.453-5.492c0.179-2.275,0.382-5.076,0.614-8.4
				c0.231-3.324,0.489-7.369,0.773-12.134c0.034-0.782,0.124-1.244,0.267-1.386c0.105-0.107,0.391-0.161,0.853-0.161h2.081
				c1.102,0,2.008,0.126,2.719,0.373c0.711,0.25,1.281,0.587,1.707,1.014c0.426,0.426,0.721,0.924,0.881,1.493
				c0.159,0.569,0.24,1.156,0.24,1.759c0,0.357-0.027,0.952-0.081,1.788c-0.054,0.836-0.116,1.849-0.185,3.04
				c-0.074,1.192-0.172,2.533-0.295,4.026c-0.125,1.494-0.241,3.059-0.346,4.693l8.531-7.786c0.32-0.285,0.613-0.481,0.881-0.587
				c0.266-0.106,0.471-0.16,0.614-0.16c0.391,0,0.817,0.25,1.278,0.747c0.463,0.498,0.898,1.075,1.308,1.733
				c0.407,0.659,0.747,1.333,1.013,2.027c0.268,0.693,0.401,1.252,0.401,1.68c0,1.032-0.828,2.116-2.479,3.253
				c-1.654,1.138-4.152,2.419-7.494,3.841c1.494,1.672,2.916,3.199,4.266,4.586c1.352,1.387,2.533,2.613,3.547,3.68
				s1.822,1.938,2.427,2.613S153.817,64.935,153.817,65.146z"/>
		</g>
	</g>
</g>
</svg>
